<svg width="28" height="28" viewBox="0 0 28 28" fill="none" xmlns="http://www.w3.org/2000/svg">
<path d="M20.7327 19.2027C19.8648 19.2027 19.0565 19.455 18.3748 19.8889L11.4953 15.0859C11.6058 14.7003 11.6662 14.2937 11.6662 13.8727C11.6662 13.4517 11.6058 13.045 11.4953 12.6595L18.1891 7.98618C18.9073 8.49633 19.7846 8.79732 20.7326 8.79732C23.1619 8.79732 25.1313 6.82795 25.1313 4.39869C25.1313 1.96942 23.162 0 20.7327 0C18.3034 0 16.3341 1.96936 16.3341 4.39863C16.3341 4.71946 16.3694 5.03192 16.4346 5.33321L9.57084 10.1253C8.90085 9.71261 8.11218 9.47408 7.26752 9.47408C4.83826 9.47408 2.8689 11.4434 2.8689 13.8727C2.8689 16.302 4.8382 18.2713 7.26752 18.2713C8.11212 18.2713 8.90085 18.0328 9.57084 17.6202L16.4876 22.4492C16.3881 22.8165 16.3341 23.2026 16.3341 23.6014C16.3341 26.0306 18.3034 28 20.7327 28C23.162 28 25.1313 26.0306 25.1313 23.6014C25.1313 21.1721 23.162 19.2027 20.7327 19.2027Z" fill="white"/>
</svg>
