<svg width="50" height="47" viewBox="0 0 50 47" fill="none" xmlns="http://www.w3.org/2000/svg">
<path d="M36.7138 35.5475C34.3179 35.5474 32.3686 33.5983 32.3686 31.2023V23.9863C32.3686 21.5903 34.3179 19.6412 36.7138 19.6412H48.0358C48.1044 19.6412 48.1725 19.6433 48.2404 19.6463V12.4579C48.2404 10.6076 46.7404 9.10754 44.89 9.10754H3.35048C1.50001 9.10743 0 10.6074 0 12.4578V42.7307C0 44.581 1.50001 46.0812 3.35048 46.0812H44.89C46.7404 46.0812 48.2404 44.5812 48.2404 42.7307V35.5423C48.1725 35.5454 48.1044 35.5475 48.0358 35.5475H36.7138Z" fill="black"/>
<path d="M48.0357 22.022H36.7137C35.6289 22.022 34.7495 22.9015 34.7495 23.9862V31.2023C34.7495 32.2871 35.6289 33.1665 36.7137 33.1665H48.0357C49.1205 33.1665 50 32.2872 50 31.2023V23.9862C50 22.9014 49.1205 22.022 48.0357 22.022ZM40.6151 30.4292C39.0493 30.4292 37.7801 29.1599 37.7801 27.5942C37.7801 26.0284 39.0493 24.7591 40.6151 24.7591C42.1809 24.7591 43.4501 26.0284 43.4501 27.5942C43.4501 29.1599 42.1809 30.4292 40.6151 30.4292Z" fill="black"/>
<path d="M39.0561 2.97031C38.3066 0.701543 35.8597 -0.529998 33.5911 0.21957L16.5701 5.84285H40.0051L39.0561 2.97031Z" fill="black"/>
</svg>
